# xmcd CD database file
#
# Track frame offsets:
#	150
#	15919
#	36973
#	61423
#	75784
#	96899
#	123037
#	147037
#	169123
#	196745
#	215323
#	226273
#	252912
#
# Disc length: 3549 seconds
#
# Revision: 0
# Processed by: cddbd v1.5.2PL0 Copyright (c) Steve Scherf et al.
# Submitted via: CDex 1.70beta3
#
DISCID=950ddb0d
DTITLE=Hiroko Williams - A Wish
DYEAR=2013
DGENRE=Jazz
TTITLE0=I Hear Music
TTITLE1=Ev'ry Time We Say Goodbye
TTITLE2=Blame It On My Youth
TTITLE3=From This Moment On
TTITLE4=But Beautiful
TTITLE5=Old Devil Moon
TTITLE6=Laura
TTITLE7=Someone To Light Up My Life
TTITLE8=Rainy days And Mondays
TTITLE9=No Soap No Hope Blues
TTITLE10=A Wish(Valentine)
TTITLE11=When I Fall In Love
TTITLE12=グッドバイからはじめよう
EXTD=YEAR: 2013
EXTT0=
EXTT1=
EXTT2=
EXTT3=
EXTT4=
EXTT5=
EXTT6=
EXTT7=
EXTT8=
EXTT9=
EXTT10=
EXTT11=
EXTT12=
PLAYORDER=
